<?xml version="1.0" encoding="UTF-8" standalone="no"?>
<!DOCTYPE svg PUBLIC "-//W3C//DTD SVG 1.1//EN" "http://www.w3.org/Graphics/SVG/1.1/DTD/svg11.dtd">
<svg width="100%" height="100%" viewBox="0 0 192 192" version="1.1" xmlns="http://www.w3.org/2000/svg" xmlns:xlink="http://www.w3.org/1999/xlink" xml:space="preserve" xmlns:serif="http://www.serif.com/" style="fill-rule:evenodd;clip-rule:evenodd;stroke-linejoin:round;stroke-miterlimit:2;">
    <g transform="matrix(1.32028,0,0,1.32028,-679.007,-1447.7)">
        <rect x="514.288" y="1096.5" width="145.423" height="145.423" style="fill:rgb(47,64,109);"/>
    </g>
    <g id="isotipo" transform="matrix(0.413184,0,0,0.413184,-1291.61,-95.9202)">
        <g transform="matrix(2.42023,0,0,2.42023,3125.99,232.149)">
            <path d="M117.912,134.282C117.912,134.282 131.812,148.181 140.758,157.128C142.735,159.105 145.496,160.087 148.277,159.802C151.058,159.517 153.563,157.995 155.098,155.659C162.503,144.444 166.831,131.011 166.831,116.574C166.831,107.321 165.053,98.48 161.82,90.374L117.912,134.282Z" style="fill:rgb(195,224,255);"/>
        </g>
        <g transform="matrix(2.42023,0,0,2.42023,3125.99,232.149)">
            <path d="M74.088,134.282C74.088,134.282 60.188,148.181 51.242,157.128C49.265,159.105 46.504,160.087 43.723,159.802C40.942,159.517 38.437,157.995 36.902,155.659C29.497,144.444 25.169,131.011 25.169,116.574C25.169,107.321 26.947,98.48 30.18,90.374L74.088,134.282Z" style="fill:rgb(195,224,255);"/>
        </g>
        <g transform="matrix(2.42023,0,0,2.42023,3125.99,232.149)">
            <path d="M160.101,10.491L160.229,10.568C171.845,17.625 182.211,26.537 190.914,36.889L178.596,36.889C173.998,36.889 169.581,38.677 166.278,41.876L96,112.156L25.722,41.876C22.419,38.677 18.002,36.889 13.404,36.889L1.086,36.889C9.789,26.537 20.155,17.625 31.771,10.568L31.899,10.491L96,74.592L160.101,10.491Z" style="fill:rgb(195,224,255);"/>
        </g>
        <g transform="matrix(1,0,0,1,0.333333,0)">
            <path d="M3480.19,259.957C3443.85,242.515 3402.8,232.149 3358,232.149C3313.63,232.149 3272.29,242.447 3235.81,259.957L3358,382.149L3480.19,259.957Z" style="fill:rgb(255,61,123);"/>
        </g>
    </g>
    <path d="M96,156.426L58.326,194.096L133.86,194.807L96,156.426Z" style="fill:rgb(195,224,255);"/>
</svg>
